<svg width="427" height="72" viewBox="0 0 427 72" fill="none" xmlns="http://www.w3.org/2000/svg">
<path d="M134.096 9.2C132.176 8.144 129.968 7.352 127.472 6.824C124.976 6.296 122.864 6.032 121.136 6.032C116.432 6.032 112.28 7.136 108.68 9.344C105.128 11.504 102.368 14.528 100.4 18.416C98.48 22.304 97.52 26.744 97.52 31.736C97.52 36.536 98.408 40.856 100.184 44.696C101.96 48.488 104.6 51.488 108.104 53.696C111.608 55.904 115.832 57.008 120.776 57.008C122.888 57.008 125.24 56.72 127.832 56.144C130.472 55.568 132.704 54.8 134.528 53.84L131 46.928C127.4 48.416 123.824 49.16 120.272 49.16C117.584 49.16 115.256 48.392 113.288 46.856C111.32 45.272 109.808 43.16 108.752 40.52C107.744 37.832 107.24 34.88 107.24 31.664C107.24 28.064 107.816 24.92 108.968 22.232C110.168 19.544 111.8 17.48 113.864 16.04C115.928 14.6 118.256 13.88 120.848 13.88C122.48 13.88 123.848 14 124.952 14.24C126.056 14.432 127.544 14.816 129.416 15.392L131.216 15.896L134.096 9.2ZM174.737 38.432C174.737 42.128 173.969 45.368 172.433 48.152C170.897 50.936 168.713 53.096 165.881 54.632C163.097 56.12 159.833 56.864 156.089 56.864C152.345 56.864 149.057 56.12 146.225 54.632C143.441 53.144 141.281 51.032 139.745 48.296C138.209 45.512 137.441 42.272 137.441 38.576C137.441 34.88 138.209 31.64 139.745 28.856C141.281 26.072 143.441 23.936 146.225 22.448C149.057 20.912 152.345 20.144 156.089 20.144C159.833 20.144 163.097 20.888 165.881 22.376C168.713 23.864 170.897 26 172.433 28.784C173.969 31.52 174.737 34.736 174.737 38.432ZM156.089 48.872C158.681 48.872 160.817 47.888 162.497 45.92C164.225 43.952 165.089 41.456 165.089 38.432C165.089 35.408 164.249 32.936 162.569 31.016C160.889 29.096 158.729 28.136 156.089 28.136C153.497 28.136 151.337 29.12 149.609 31.088C147.929 33.056 147.089 35.552 147.089 38.576C147.089 41.6 147.929 44.072 149.609 45.992C151.289 47.912 153.449 48.872 156.089 48.872ZM189.883 34.688C191.899 32.912 194.059 31.448 196.363 30.296C198.715 29.144 200.683 28.568 202.267 28.568L200.395 21.08C198.667 21.08 196.675 21.68 194.419 22.88C192.163 24.08 190.195 25.424 188.515 26.912L185.419 21.08H180.523V56H189.883V34.688ZM224.672 56L238.424 21.08H228.56L220.928 42.248L212.864 19.784L203.72 22.52L216.608 56H224.672ZM266.573 45.272C264.845 46.52 263.261 47.528 261.821 48.296C260.381 49.016 258.845 49.376 257.213 49.376C255.629 49.376 254.381 48.776 253.469 47.576C252.605 46.376 252.173 44.696 252.173 42.536V21.08H242.813V42.968C242.813 47.432 243.701 50.912 245.477 53.408C247.253 55.904 250.349 57.152 254.765 57.152C256.685 57.152 258.869 56.72 261.317 55.856C263.765 54.992 266.069 53.792 268.229 52.256L269.813 56H275.933V21.08H266.573V45.272ZM281.866 53.264C283.354 54.416 285.298 55.304 287.698 55.928C290.098 56.552 292.186 56.864 293.962 56.864C298.666 56.864 302.266 55.928 304.762 54.056C307.258 52.136 308.506 49.424 308.506 45.92C308.506 43.136 307.378 40.784 305.122 38.864C302.866 36.944 300.034 35.36 296.626 34.112C294.85 33.488 293.482 32.936 292.522 32.456C291.61 31.928 291.154 31.352 291.154 30.728C291.154 29.912 291.538 29.216 292.306 28.64C293.122 28.016 294.13 27.704 295.33 27.704C296.866 27.704 298.33 27.896 299.722 28.28C301.162 28.664 302.794 29.264 304.618 30.08L307.426 23.816C305.794 22.712 303.802 21.824 301.45 21.152C299.098 20.48 297.106 20.144 295.474 20.144C291.298 20.144 287.986 21.104 285.538 23.024C283.09 24.896 281.866 27.488 281.866 30.8C281.866 33.44 282.97 35.624 285.178 37.352C287.386 39.08 290.146 40.496 293.458 41.6C297.538 42.848 299.578 44.408 299.578 46.28C299.578 47.24 298.978 47.984 297.778 48.512C296.578 49.04 295.258 49.304 293.818 49.304C291.274 49.304 288.226 48.512 284.674 46.928L281.866 53.264ZM349.393 9.2C347.473 8.144 345.265 7.352 342.769 6.824C340.273 6.296 338.161 6.032 336.433 6.032C331.729 6.032 327.577 7.136 323.977 9.344C320.425 11.504 317.665 14.528 315.697 18.416C313.777 22.304 312.817 26.744 312.817 31.736C312.817 36.536 313.705 40.856 315.481 44.696C317.257 48.488 319.897 51.488 323.401 53.696C326.905 55.904 331.129 57.008 336.073 57.008C338.185 57.008 340.537 56.72 343.129 56.144C345.769 55.568 348.001 54.8 349.825 53.84L346.297 46.928C342.697 48.416 339.121 49.16 335.569 49.16C332.881 49.16 330.553 48.392 328.585 46.856C326.617 45.272 325.105 43.16 324.049 40.52C323.041 37.832 322.537 34.88 322.537 31.664C322.537 28.064 323.113 24.92 324.265 22.232C325.465 19.544 327.097 17.48 329.161 16.04C331.225 14.6 333.553 13.88 336.145 13.88C337.777 13.88 339.145 14 340.249 14.24C341.353 14.432 342.841 14.816 344.713 15.392L346.513 15.896L349.393 9.2ZM354.322 52.76C355.954 53.768 358.258 54.728 361.234 55.64C364.258 56.504 366.778 56.936 368.794 56.936C372.634 56.936 375.922 56.36 378.658 55.208C381.442 54.056 383.53 52.472 384.922 50.456C386.362 48.44 387.082 46.112 387.082 43.472C387.082 41.12 386.506 39.08 385.354 37.352C384.25 35.576 382.858 34.088 381.178 32.888C379.498 31.64 377.242 30.2 374.41 28.568L372.322 27.344L370.018 26.048C367.57 24.608 365.794 23.432 364.69 22.52C363.634 21.56 363.106 20.384 363.106 18.992C363.106 17.36 363.778 16.136 365.122 15.32C366.514 14.456 368.29 14.024 370.45 14.024C372.322 14.024 374.05 14.288 375.634 14.816C377.266 15.344 379.066 16.088 381.034 17.048L384.13 9.56C379.042 7.112 374.434 5.888 370.306 5.888C366.802 5.888 363.778 6.464 361.234 7.616C358.738 8.72 356.818 10.28 355.474 12.296C354.13 14.264 353.458 16.496 353.458 18.992C353.458 21.344 354.13 23.48 355.474 25.4C356.866 27.272 358.498 28.904 360.37 30.296C362.29 31.688 364.858 33.344 368.074 35.264L370.234 36.56C372.682 37.904 374.482 39.08 375.634 40.088C376.834 41.048 377.434 42.128 377.434 43.328C377.434 45.056 376.69 46.376 375.202 47.288C373.714 48.2 371.53 48.656 368.65 48.656C366.778 48.656 364.714 48.32 362.458 47.648C360.202 46.928 358.186 46.112 356.41 45.2L354.322 52.76ZM392.29 52.76C393.922 53.768 396.226 54.728 399.202 55.64C402.226 56.504 404.746 56.936 406.762 56.936C410.602 56.936 413.89 56.36 416.626 55.208C419.41 54.056 421.498 52.472 422.89 50.456C424.33 48.44 425.05 46.112 425.05 43.472C425.05 41.12 424.474 39.08 423.322 37.352C422.218 35.576 420.826 34.088 419.146 32.888C417.466 31.64 415.21 30.2 412.378 28.568L410.29 27.344L407.986 26.048C405.538 24.608 403.762 23.432 402.658 22.52C401.602 21.56 401.074 20.384 401.074 18.992C401.074 17.36 401.746 16.136 403.09 15.32C404.482 14.456 406.258 14.024 408.418 14.024C410.29 14.024 412.018 14.288 413.602 14.816C415.234 15.344 417.034 16.088 419.002 17.048L422.098 9.56C417.01 7.112 412.402 5.888 408.274 5.888C404.77 5.888 401.746 6.464 399.202 7.616C396.706 8.72 394.786 10.28 393.442 12.296C392.098 14.264 391.426 16.496 391.426 18.992C391.426 21.344 392.098 23.48 393.442 25.4C394.834 27.272 396.466 28.904 398.338 30.296C400.258 31.688 402.826 33.344 406.042 35.264L408.202 36.56C410.65 37.904 412.45 39.08 413.602 40.088C414.802 41.048 415.402 42.128 415.402 43.328C415.402 45.056 414.658 46.376 413.17 47.288C411.682 48.2 409.498 48.656 406.618 48.656C404.746 48.656 402.682 48.32 400.426 47.648C398.17 46.928 396.154 46.112 394.378 45.2L392.29 52.76Z" fill="#C3C8CB"/>
<rect x="34" y="6" width="12" height="57.6" rx="2" fill="#8C959B"/>
<rect x="68" y="20.4" width="12" height="28.8" rx="2" fill="#C3C8CB"/>
<rect x="17" width="12" height="72" rx="2" fill="#727C83"/>
<rect x="51" y="13.2" width="12" height="43.2" rx="2" fill="#A8AEB3"/>
<rect y="6.12" width="12" height="57.6" rx="2" fill="#5F676D"/>
</svg>
